<svg xmlns="http://www.w3.org/2000/svg" style="display:none" aria-hidden="true">
  <defs>
    <g id="mwc-icon-style"></g>
  </defs>

  <symbol id="ticket" viewBox="0 0 24 24" fill="none" stroke="currentColor" stroke-width="1.7" stroke-linecap="round" stroke-linejoin="round">
    <path d="M3 8a2 2 0 0 1 2-2h14a2 2 0 0 1 2 2v2a2 2 0 0 0 0 4v2a2 2 0 0 1-2 2H5a2 2 0 0 1-2-2v-2a2 2 0 0 0 0-4Z"/>
    <path d="M13 6v2M13 11v2M13 16v2"/>
  </symbol>

  <symbol id="graduation" viewBox="0 0 24 24" fill="none" stroke="currentColor" stroke-width="1.7" stroke-linecap="round" stroke-linejoin="round">
    <path d="M2 8.5 12 4l10 4.5-10 4.5-10-4.5Z"/>
    <path d="M6 10.5V15c0 1.7 2.7 3 6 3s6-1.3 6-3v-4.5"/>
    <path d="M22 8.5v6"/>
  </symbol>

  <symbol id="handshake" viewBox="0 0 24 24" fill="none" stroke="currentColor" stroke-width="1.7" stroke-linecap="round" stroke-linejoin="round">
    <path d="M2 12h4l3-3 3 3 3-3 3 3h4"/>
    <path d="M8 12v3a2 2 0 0 0 2 2h.5"/>
    <path d="M16 12v3a2 2 0 0 1-2 2h-.5"/>
    <path d="M2 9v6M22 9v6"/>
  </symbol>

  <symbol id="compass" viewBox="0 0 24 24" fill="none" stroke="currentColor" stroke-width="1.7" stroke-linecap="round" stroke-linejoin="round">
    <circle cx="12" cy="12" r="9.5"/>
    <path d="M14.8 9.2 13 13l-3.8 1.8L11 11l3.8-1.8Z"/>
  </symbol>

  <symbol id="map-pin" viewBox="0 0 24 24" fill="none" stroke="currentColor" stroke-width="1.7" stroke-linecap="round" stroke-linejoin="round">
    <path d="M12 21s7-7.2 7-12a7 7 0 0 0-14 0c0 4.8 7 12 7 12Z"/>
    <circle cx="12" cy="9" r="2.5"/>
  </symbol>

  <symbol id="route" viewBox="0 0 24 24" fill="none" stroke="currentColor" stroke-width="1.7" stroke-linecap="round" stroke-linejoin="round">
    <circle cx="5" cy="18" r="2.2"/>
    <circle cx="19" cy="6" r="2.2"/>
    <path d="M7 18h7a3 3 0 0 0 3-3V9a3 3 0 0 1 2-2.8"/>
  </symbol>

  <symbol id="heart" viewBox="0 0 24 24" fill="none" stroke="currentColor" stroke-width="1.7" stroke-linecap="round" stroke-linejoin="round">
    <path d="M12 20.5s-7.5-4.6-9.8-9.3C.6 7.8 2.4 4.5 5.7 4a4.6 4.6 0 0 1 6.3 2.1A4.6 4.6 0 0 1 18.3 4c3.3.5 5.1 3.8 3.5 7.2C19.5 15.9 12 20.5 12 20.5Z"/>
  </symbol>

  <symbol id="key" viewBox="0 0 24 24" fill="none" stroke="currentColor" stroke-width="1.7" stroke-linecap="round" stroke-linejoin="round">
    <circle cx="8" cy="15" r="4.2"/>
    <path d="M11 12.2 19 4.2M16.5 6.7l2.2 2.2M14 9.2l1.8 1.8"/>
  </symbol>

  <symbol id="seedling" viewBox="0 0 24 24" fill="none" stroke="currentColor" stroke-width="1.7" stroke-linecap="round" stroke-linejoin="round">
    <path d="M12 21v-8"/>
    <path d="M12 13c0-4 3-6.5 8-6.5 0 5-3 6.5-8 6.5Z"/>
    <path d="M12 13c0-3.2-2.4-5-6-5 0 4 2.4 5 6 5Z"/>
  </symbol>

  <symbol id="star" viewBox="0 0 24 24" fill="none" stroke="currentColor" stroke-width="1.7" stroke-linecap="round" stroke-linejoin="round">
    <path d="M12 3.5 14.6 9l6 .9-4.3 4.2 1 6-5.3-2.8-5.3 2.8 1-6L3.4 9.9l6-.9 2.6-5.5Z"/>
  </symbol>

  <symbol id="folder" viewBox="0 0 24 24" fill="none" stroke="currentColor" stroke-width="1.7" stroke-linecap="round" stroke-linejoin="round">
    <path d="M3 6.5a1.5 1.5 0 0 1 1.5-1.5H9l2 2h8.5A1.5 1.5 0 0 1 21 8.5v9A1.5 1.5 0 0 1 19.5 19h-15A1.5 1.5 0 0 1 3 17.5Z"/>
  </symbol>

  <symbol id="coin" viewBox="0 0 24 24" fill="none" stroke="currentColor" stroke-width="1.7" stroke-linecap="round" stroke-linejoin="round">
    <circle cx="12" cy="12" r="9.5"/>
    <path d="M9.3 15.2c.5.7 1.4 1.1 2.4 1.1 1.7 0 3-1 3-2.4 0-3.2-6-1.6-6-4.7 0-1.4 1.3-2.4 3-2.4 1 0 1.9.4 2.4 1.1M12 6.5v11"/>
  </symbol>

  <symbol id="calendar" viewBox="0 0 24 24" fill="none" stroke="currentColor" stroke-width="1.7" stroke-linecap="round" stroke-linejoin="round">
    <rect x="3.5" y="5" width="17" height="15.5" rx="2"/>
    <path d="M3.5 9.5h17M8 3v3.5M16 3v3.5"/>
  </symbol>

  <symbol id="megaphone" viewBox="0 0 24 24" fill="none" stroke="currentColor" stroke-width="1.7" stroke-linecap="round" stroke-linejoin="round">
    <path d="M3 10v4a1.5 1.5 0 0 0 1.5 1.5H6l1 4h2l-1-4h1l9 4.5v-15L9 9H4.5A1.5 1.5 0 0 0 3 10Z"/>
    <path d="M19 9.3a4 4 0 0 1 0 5.4"/>
  </symbol>

  <symbol id="laptop" viewBox="0 0 24 24" fill="none" stroke="currentColor" stroke-width="1.7" stroke-linecap="round" stroke-linejoin="round">
    <rect x="4" y="5" width="16" height="10.5" rx="1.5"/>
    <path d="M2 19.5h20"/>
  </symbol>

  <symbol id="search" viewBox="0 0 24 24" fill="none" stroke="currentColor" stroke-width="1.7" stroke-linecap="round" stroke-linejoin="round">
    <circle cx="10.5" cy="10.5" r="6.5"/>
    <path d="m20 20-4.35-4.35"/>
  </symbol>

  <symbol id="building" viewBox="0 0 24 24" fill="none" stroke="currentColor" stroke-width="1.7" stroke-linecap="round" stroke-linejoin="round">
    <path d="M4 21V6l8-3 8 3v15"/>
    <path d="M4 21h16M9 9.5h.01M14.99 9.5H15M9 13.5h.01M14.99 13.5H15M9 21v-4h6v4"/>
  </symbol>

  <symbol id="briefcase" viewBox="0 0 24 24" fill="none" stroke="currentColor" stroke-width="1.7" stroke-linecap="round" stroke-linejoin="round">
    <rect x="3" y="7.5" width="18" height="12" rx="2"/>
    <path d="M8 7.5V6a2 2 0 0 1 2-2h4a2 2 0 0 1 2 2v1.5M3 12.5h18"/>
  </symbol>

  <symbol id="inbox" viewBox="0 0 24 24" fill="none" stroke="currentColor" stroke-width="1.7" stroke-linecap="round" stroke-linejoin="round">
    <path d="M3 12.5 6 5h12l3 7.5"/>
    <path d="M3 12.5v5A1.5 1.5 0 0 0 4.5 19h15a1.5 1.5 0 0 0 1.5-1.5v-5h-5.2a2.8 2.8 0 0 1-5.6 0H3Z"/>
  </symbol>

  <symbol id="globe" viewBox="0 0 24 24" fill="none" stroke="currentColor" stroke-width="1.7" stroke-linecap="round" stroke-linejoin="round">
    <circle cx="12" cy="12" r="9.5"/>
    <path d="M2.5 12h19M12 2.5c2.6 2.7 4 6 4 9.5s-1.4 6.8-4 9.5c-2.6-2.7-4-6-4-9.5s1.4-6.8 4-9.5Z"/>
  </symbol>

  <symbol id="trending" viewBox="0 0 24 24" fill="none" stroke="currentColor" stroke-width="1.7" stroke-linecap="round" stroke-linejoin="round">
    <path d="m3 16 6-6 4 4 8-8"/>
    <path d="M15 6h6v6"/>
  </symbol>

  <symbol id="document" viewBox="0 0 24 24" fill="none" stroke="currentColor" stroke-width="1.7" stroke-linecap="round" stroke-linejoin="round">
    <path d="M6 3.5h9l3.5 3.5v13a1 1 0 0 1-1 1H6a1 1 0 0 1-1-1v-15a1 1 0 0 1 1-1Z"/>
    <path d="M15 3.5V7h3.5M8.5 12h7M8.5 15.5h7"/>
  </symbol>

  <symbol id="clipboard" viewBox="0 0 24 24" fill="none" stroke="currentColor" stroke-width="1.7" stroke-linecap="round" stroke-linejoin="round">
    <rect x="5" y="4.5" width="14" height="17" rx="2"/>
    <path d="M9 4.5a1.5 1.5 0 0 1 1.5-1.5h3A1.5 1.5 0 0 1 15 4.5V6H9Z"/>
    <path d="M8.5 12.5h7M8.5 16h7"/>
  </symbol>

  <symbol id="phone" viewBox="0 0 24 24" fill="none" stroke="currentColor" stroke-width="1.7" stroke-linecap="round" stroke-linejoin="round">
    <path d="M6.5 3.5h3l1.3 4.3-2 1.6a13 13 0 0 0 5.8 5.8l1.6-2 4.3 1.3v3a1.5 1.5 0 0 1-1.6 1.5A16.5 16.5 0 0 1 5 5.1a1.5 1.5 0 0 1 1.5-1.6Z"/>
  </symbol>

  <symbol id="repeat" viewBox="0 0 24 24" fill="none" stroke="currentColor" stroke-width="1.7" stroke-linecap="round" stroke-linejoin="round">
    <path d="M4 7.5h13l-2.5-2.5M20 16.5H7l2.5 2.5"/>
  </symbol>

  <symbol id="gift" viewBox="0 0 24 24" fill="none" stroke="currentColor" stroke-width="1.7" stroke-linecap="round" stroke-linejoin="round">
    <rect x="3.5" y="9.5" width="17" height="4" rx="1"/>
    <path d="M4.5 13.5v7a1 1 0 0 0 1 1h13a1 1 0 0 0 1-1v-7M12 9.5v12"/>
    <path d="M12 9.5c-1-3-3-4.5-4.5-3.5S7 9.5 12 9.5ZM12 9.5c1-3 3-4.5 4.5-3.5S17 9.5 12 9.5Z"/>
  </symbol>

  <symbol id="scroll" viewBox="0 0 24 24" fill="none" stroke="currentColor" stroke-width="1.7" stroke-linecap="round" stroke-linejoin="round">
    <path d="M7 4h11v13a3 3 0 0 1-3 3H7"/>
    <path d="M7 4a2.5 2.5 0 0 0 0 5M7 20a2.5 2.5 0 0 1 0-5h11"/>
  </symbol>

  <symbol id="mail" viewBox="0 0 24 24" fill="none" stroke="currentColor" stroke-width="1.7" stroke-linecap="round" stroke-linejoin="round">
    <rect x="3.5" y="5.5" width="17" height="13" rx="2"/>
    <path d="m4 6.5 8 6.5 8-6.5"/>
  </symbol>

  <symbol id="shield" viewBox="0 0 24 24" fill="none" stroke="currentColor" stroke-width="1.7" stroke-linecap="round" stroke-linejoin="round">
    <path d="M12 3.5 19 6v6c0 5-3.2 7.8-7 8.5-3.8-.7-7-3.5-7-8.5V6Z"/>
    <path d="m9 12 2 2 4-4.5"/>
  </symbol>

  <!-- Decorative brand mark used inside illustration panels -->
  <symbol id="mark-connect" viewBox="0 0 120 120">
    <circle cx="60" cy="60" r="46" fill="none" stroke="currentColor" stroke-width="1.4" opacity="0.35"/>
    <path d="M38 66c0-14 10-24 22-24s22 10 22 24" fill="none" stroke="currentColor" stroke-width="2.4" stroke-linecap="round"/>
    <circle cx="38" cy="66" r="6" fill="currentColor"/>
    <circle cx="82" cy="66" r="6" fill="currentColor"/>
    <path d="M60 42v-8" stroke="currentColor" stroke-width="2.4" stroke-linecap="round"/>
    <circle cx="60" cy="30" r="4.5" fill="currentColor"/>
  </symbol>
</svg>
